PathFileType	3	(X/Y/Z)	D:\Jess\PFP\Labelled\PA26\20251029\SRRun01.trc
DataRate	CameraRate	NumFrames	NumMarkers	Units	OrigDataRate	OrigDataStartFrame	OrigNumFrames
250.0	250.0	4	37	mm	250.0	35937	2501
Frame#	Time	C7			T10			CLAV			LSHO			RSHO			LASIS			RASIS			LPSIS			RPSIS			LILCR			RILCR			LGTR			LTHI			LLTHI			LLEP			LMEP			LPSH			LLSH			LDSH			LLMAL			LMMAL			LTOE			L5TH			LHEE			RGTR			RTHI			RLTHI			RLEP			RMEP			RPSH			RLSH			RDSH			RLMAL			RMMAL			RTOE			R5TH			RHEE			
		X1	Y1	Z1	X2	Y2	Z2	X3	Y3	Z3	X4	Y4	Z4	X5	Y5	Z5	X6	Y6	Z6	X7	Y7	Z7	X8	Y8	Z8	X9	Y9	Z9	X10	Y10	Z10	X11	Y11	Z11	X12	Y12	Z12	X13	Y13	Z13	X14	Y14	Z14	X15	Y15	Z15	X16	Y16	Z16	X17	Y17	Z17	X18	Y18	Z18	X19	Y19	Z19	X20	Y20	Z20	X21	Y21	Z21	X22	Y22	Z22	X23	Y23	Z23	X24	Y24	Z24	X25	Y25	Z25	X26	Y26	Z26	X27	Y27	Z27	X28	Y28	Z28	X29	Y29	Z29	X30	Y30	Z30	X31	Y31	Z31	X32	Y32	Z32	X33	Y33	Z33	X34	Y34	Z34	X35	Y35	Z35	X36	Y36	Z36	X37	Y37	Z37	

938	143.744	1076.177763051223	1451.177725826029	-320.5367439229398	1001.857390621823	1247.598498688461	-287.421810004789	1195.104028962608	1365.965979375214	-376.9214454927605	1066.479572696568	1429.5207422576	-474.332787441942	1185.445907296574	1429.481990825643	-207.1026984895404	1134.978623810934	996.7926518315239	-442.6290351832109	1140.849483049141	965.6849031473647	-218.7475361544665	968.1733812097734	1062.548834005059	-348.7404038259166	970.7029106951318	1058.281465450598	-303.2058901723479	1075.999872723231	1065.154956936086	-485.2403882947333	1102.940682891979	1042.285974494866	-190.8210689701578	1096.778279794421	910.7490150718322	-506.8420116197905	1179.638562228648	789.9624543471788	-402.7257532151363	1135.709651305779	647.5827225820932	-478.3482086062156	1178.427018074241	521.3665083963218	-460.0514028638984	nan	nan	nan	1244.418033382957	466.9427744908178	-401.5379769072285	1220.049333685237	323.1363590084818	-462.7712352029042	1288.835983640443	239.8567015030219	-406.3440446235943	1274.69664774693	136.4346909824912	-431.9041892475045	nan	nan	nan	1411.128930634269	162.5476428448987	-411.3893759441256	1389.519176188111	108.3607098537606	-442.5172253386538	1221.254768762123	76.84071713237559	-376.0684780402681	1036.955773313853	917.5442187198481	-155.0080413389684	1084.385654709933	716.0285311619434	-253.3468037668319	938.9570284893556	640.2408573936443	-207.3878850766389	875.0517675038673	508.5969877196701	-229.1936714807672	nan	nan	nan	831.8109919697417	424.8103438735785	-284.4689799184931	690.0172290963425	442.3850330834925	-227.1545604422532	633.4808018680461	341.455960730765	-272.4250762809725	521.6196704331877	334.7123388697423	-250.4268812478396	nan	nan	nan	519.1689466271016	190.7340039558545	-280.3362188880955	482.261171421713	225.0780521632478	-238.7883236047096	486.3050066772396	397.7989188467452	-300.6795021077344	
939	143.748	1076.360042255943	1448.81615315078	-320.8831743138711	1001.445082149446	1245.588787736332	-288.2563276748772	1195.185187294645	1363.313657787059	-376.7767795783584	1067.070604633298	1427.107863033811	-474.8553921394303	1185.122301953988	1426.885340832698	-207.1087700418022	1134.672545421009	994.5160991655232	-443.0909282428003	1140.743663406186	963.9915449595716	-218.6671289538642	967.5258102448987	1059.260933430709	-349.2204256661418	969.9744649304037	1055.069336835404	-303.6305004128189	1075.461526055556	1062.357506046408	-485.5519891787266	1101.811648253429	1040.27822244173	-190.7811794060731	1095.839915335979	907.921508661252	-507.4747801678371	1181.303254842862	789.1419572947079	-403.9464127238375	1135.139437826708	645.5759379867709	-477.6388730796824	1177.848398923463	519.2403832776656	-459.9308273463276	nan	nan	nan	1243.418731599146	464.0067855069756	-401.4051357204365	1217.676746040563	320.2243346846832	-462.6307836950314	1285.519783615626	236.2368200409625	-406.0247837536704	1270.466997659488	132.9858140978955	-431.7111576547092	nan	nan	nan	1406.942527959819	157.6228129199892	-410.6966095300914	1384.884735918609	103.6063257657654	-441.7301949245856	1216.206878459257	74.47419474773665	-375.9173194006474	1037.114667279832	914.6836626876149	-155.2992864156139	1086.608136955402	713.7168052689505	-253.824818194571	942.2442536870817	636.0211390742285	-207.2622004104261	879.6636804480298	504.7872000794117	-228.9156408422822	nan	nan	nan	834.8720201306614	421.6542447205556	-283.4833661617646	693.1402344041741	443.9635089941467	-226.9326516219322	634.0463397263399	344.3191158520949	-271.5245960130411	521.8451989908104	340.9205467642731	-249.9855771035321	nan	nan	nan	516.530302955841	196.7970072579531	-278.5747745811275	480.0492547724412	232.2831404705755	-237.6034185564963	488.1367496014674	404.3504894703137	-301.0007069587398	
940	143.752	1076.401341795313	1446.241555422127	-321.2577034927816	1001.026727271033	1243.383069576158	-289.123153003898	1195.223100453961	1360.520414324105	-376.6128218032849	1067.680078493413	1424.51941543622	-475.3862317678602	1184.690340588667	1424.124881401616	-207.1029530316112	1134.353314234085	992.1581744360423	-443.6007131004566	1140.627207073673	962.0585233729176	-218.6160805882483	966.8673518318964	1055.749910068505	-349.6073765061093	969.2405748959112	1051.616539999192	-303.956126484483	1074.858034772579	1059.390387068512	-485.8804924358147	1100.732298584443	1038.010276374064	-190.7168136341328	1094.87966576042	905.0840138878526	-508.1285596542687	1183.170526455249	788.3282976668083	-405.3204188142332	1134.543889607568	643.4876186422027	-476.981799935538	1177.176035447774	516.9195304183597	-459.8662980601973	nan	nan	nan	1242.373032253459	460.7734823360527	-401.4297804247515	1214.983969723732	317.0733932701228	-462.5110125098283	1281.825876854626	232.3150551511721	-405.6857371716659	1265.71667661012	129.3041710927147	-431.4993370277037	nan	nan	nan	1402.2544400094	152.1785784279973	-409.8707416402529	1379.646616887143	98.42764451029959	-440.865942286781	1210.492874990797	72.12472873008645	-375.7941736790533	1037.250275403372	911.5303050302839	-155.6082307354429	1088.810136016012	711.2065109360964	-254.2965331682751	945.5704610338032	631.646208153613	-207.071734193094	884.3717730841012	500.8765350142527	-228.52777325022	nan	nan	nan	838.1428271359837	418.4035748416716	-282.3790766001313	696.5732310392943	445.4120250252588	-226.6835549144769	635.0200722955474	347.1103976078322	-270.5795648676472	522.5745876311269	347.0479750017042	-249.5820036388873	nan	nan	nan	514.4834945787974	202.814558137053	-276.7089743870555	478.4308400948287	239.4514327613622	-236.3680374629013	490.4550390564753	410.7115489783906	-301.4238325387026	
941	143.756	1076.279626655302	1443.442609203663	-321.6604026966738	1000.605970801967	1240.967911576372	-290.022695198618	1195.219170157211	1357.5881863273	-376.4319007926552	1068.307734913214	1421.752231005025	-475.9311207899923	1184.142760102142	1421.201404204556	-207.0771311610561	1134.016203068285	989.712757148266	-444.1535919181617	1140.501391572871	959.8785429311606	-218.5968214572488	966.1962877435915	1052.030361459501	-349.8944025296235	968.5014360671229	1047.931547205589	-304.1753182693072	1074.193785250654	1056.252995979032	-486.229201856942	1099.715615741933	1035.472368669434	-190.6274060847662	1093.908853793378	902.2251533172883	-508.7925080035517	1185.176277968685	787.4559871606009	-406.8332846428867	1133.939686340478	641.2972788734328	-476.4040581838013	1176.424811974385	514.4030827412205	-459.8583635731919	nan	nan	nan	1241.302484240374	457.2753736598121	-401.6007731666318	1212.011984798225	313.7205572994983	-462.4006710105404	1277.796379183926	228.1448738630406	-405.3093951799336	1260.489739965562	125.4546918000191	-431.2498727765179	nan	nan	nan	1397.103856891685	146.2957729206325	-408.9132417387891	1373.843398877088	92.9193865189977	-439.9379876670499	1204.173049954029	69.84755945571388	-375.6795139046186	1037.3667635805	908.0857540007279	-155.9334477878506	1090.999136607177	708.503056868425	-254.7425639393279	948.9315460634243	627.127885530678	-206.8185782736252	889.1705412183484	496.8683334863022	-228.0268758308023	nan	nan	nan	841.6189944991384	415.0647846802141	-281.1663856161835	700.3112570835744	446.713090363157	-226.4073372991712	636.3959129400838	349.8177732850091	-269.6019857209103	523.8047267386637	353.0747252086478	-249.2187177782968	nan	nan	nan	513.0279581121239	208.7726192508605	-274.7565426372678	477.4124487565943	246.5605206416868	-235.0898736763028	493.2434372545633	416.8645787575733	-301.9393959158222	
